<?xml version="1.0" encoding="UTF-8"?>
<!DOCTYPE svg PUBLIC "-//W3C//DTD SVG 1.1//EN" "http://www.w3.org/Graphics/SVG/1.1/DTD/svg11.dtd">
<!-- Creator: CorelDRAW X6 -->
<svg xmlns="http://www.w3.org/2000/svg" xml:space="preserve" width="98.6162mm" height="33.4659mm" version="1.1" style="shape-rendering:geometricPrecision; text-rendering:geometricPrecision; image-rendering:optimizeQuality; fill-rule:evenodd; clip-rule:evenodd"
viewBox="0 0 64716 21962"
 xmlns:xlink="http://www.w3.org/1999/xlink">
 <defs>
  <style type="text/css">
   <![CDATA[
    .fil1 {fill:black}
    .fil0 {fill:black;fill-rule:nonzero}
   ]]>
  </style>
 </defs>
 <g id="Layer_x0020_1">
  <metadata id="CorelCorpID_0Corel-Layer"/>
  <path class="fil0" d="M18837 864l358 284c424,337 761,743 1009,1189 257,464 417,972 477,1493 60,520 20,1052 -125,1562 -140,491 -376,963 -712,1387l-995 1253c-53,68 -152,80 -220,26l-75 -59 -5 -3c-33,-26 -60,-47 -73,-57l-470 -353c-69,-52 -84,-150 -32,-220l3 -3 1005 -1268c244,-306 415,-649 516,-1006 105,-370 135,-756 91,-1133 -43,-378 -160,-747 -346,-1084 -180,-325 -424,-619 -731,-862l-358 -284c-307,-244 -649,-415 -1006,-516 -371,-105 -757,-135 -1134,-91 -377,43 -747,160 -1084,347 -324,179 -619,423 -862,730l-1112 1401c-53,67 -149,79 -217,28l0 0c-106,-80 -213,-161 -320,-242 -116,-87 -221,-167 -305,-230l-4 -3 0 0 -2 -1c-68,-54 -79,-153 -25,-221l3 -3 1121 -1412c336,-424 742,-761 1189,-1009 463,-257 972,-417 1492,-477 520,-60 1052,-20 1562,125 491,140 963,376 1387,712z"/>
  <path class="fil1" d="M7720 17469c1828,425 2797,648 3378,779 146,85 240,217 187,433 -187,494 -539,516 -939,900 -768,738 -328,2032 689,2336 872,191 1689,-252 1883,-999 121,-465 26,-870 -275,-1468 -154,-361 -181,-799 227,-825 591,127 1598,348 3578,794 1542,348 1813,349 2163,-1182 242,-1061 432,-2034 619,-2865 62,-273 119,-923 613,-798 492,190 513,541 894,943 734,773 2030,341 2341,-674 196,-871 -242,-1690 -988,-1889 -465,-124 -870,-31 -1470,266 -421,176 -945,181 -799,-467l668 -2967c346,-1532 234,-1925 -1262,-2262l-3193 -720c-341,-77 -680,63 -616,367 189,271 293,442 335,721 79,521 -112,1122 -759,1376 -567,223 -1271,110 -1610,-693 -240,-568 8,-1283 784,-1644 111,-107 77,-201 29,-401 -47,-198 -530,-259 -749,-308 -1016,-229 -1997,-484 -3128,-729 -1185,-256 -1510,234 -1768,1375l-629 2791c-116,515 -201,971 -808,737 -699,-269 -484,-1112 -1573,-1357 -1860,-341 -2534,2532 -704,3143 1022,250 1423,-582 1991,-534 646,54 536,490 423,991l-18 78 13 3c224,-284 620,-355 928,-173 36,21 69,45 101,72 175,-59 347,-43 509,51 49,28 94,62 133,102l3199 -269c-68,-936 805,-1762 1723,-1556 1298,292 1620,2422 -46,2914l420 3307 -3394 -739 1207 -1777c-90,-18 -173,-60 -243,-119 -65,-54 -120,-123 -161,-200 -67,23 -114,39 -185,45l11 131c48,541 -604,892 -1007,557 -92,-76 -165,-183 -204,-299 -17,-50 -28,-102 -33,-153l0 -2 -65 -781 -1123 95c-110,233 -344,324 -582,263 -28,37 -59,72 -94,103 -134,121 -251,156 -422,183 -178,15 -348,-38 -483,-138 -30,-21 -57,-45 -83,-70 -154,60 -325,55 -476,-13 -95,408 -195,845 -291,1273 -320,1428 -193,1633 1134,1942z"/>
  <path class="fil1" d="M3376 14429c-109,158 -207,316 -309,487 -517,873 -1055,1186 -1486,1182 -218,-3 -406,-85 -555,-225 -223,-211 -374,-578 -224,-900 136,-353 452,-777 1276,-912 347,-57 288,-286 -5,-295 -685,-21 -1055,-248 -1296,-486 -267,-263 -294,-558 -190,-856 97,-280 337,-496 639,-550 424,-77 1007,142 1662,916 157,186 306,353 478,521 405,452 522,404 10,1118zm-2953 1545c244,395 674,652 1152,657 602,7 1319,-375 1952,-1443 122,-207 241,-395 390,-596 126,-170 273,-348 463,-556l2437 -205c112,236 463,287 613,24 162,570 796,335 863,-15 197,155 484,40 546,-178l1555 -131 89 1059c42,499 723,354 688,-58l-63 -759c119,544 688,368 688,-58l28 342c15,174 183,380 373,315 180,-61 331,-184 315,-373l67 794c34,400 732,452 688,-58l-81 -967c187,-19 402,-192 387,-379 -12,-142 -25,-283 -36,-425 -13,-164 -160,-288 -324,-274l-269 23 -4156 349c-63,-131 -203,-187 -341,-196 -95,-6 -177,54 -234,121 -78,-174 -260,-248 -440,-260 -212,-14 -376,184 -400,388 -167,-214 -524,-170 -605,117l-2441 205c-219,-170 -393,-321 -545,-468 -181,-174 -330,-340 -486,-523 -801,-947 -1573,-1204 -2165,-1098 -533,97 -943,496 -1080,996 -120,436 -29,883 273,1232 172,199 400,347 653,445 -345,206 -611,508 -715,882 -114,414 -70,698 161,1071z"/>
  <path class="fil0" d="M26886 13601l0 3942 -283 0 0 -1888 -2488 0 0 1888 -283 0 0 -3942 283 0 0 1799 2488 0 0 -1799 283 0zm949 3942l0 -2887 278 0 0 2887 -278 0zm0 -3542l0 -511 278 0 0 511 -278 0zm2327 3598c-200,0 -385,-42 -555,-125 -171,-83 -318,-194 -442,-333 -124,-139 -220,-298 -289,-478 -68,-179 -102,-365 -102,-558 0,-200 33,-390 100,-572 66,-181 159,-340 277,-477 119,-137 259,-246 420,-328 161,-81 337,-122 530,-122 126,0 245,18 358,56 113,37 217,86 311,147 94,61 180,132 258,213 78,82 145,169 200,261l0 -1793 278 0 0 3665c0,92 39,139 116,139l0 249c-18,4 -35,6 -50,6 -14,0 -29,0 -44,0 -82,0 -147,-26 -197,-78 -50,-52 -75,-109 -75,-172l0 -333c-119,192 -277,346 -475,461 -198,115 -404,172 -619,172zm50 -250c100,0 207,-20 322,-61 115,-41 222,-97 322,-169 100,-73 184,-155 253,-247 68,-93 108,-193 119,-300l0 -950c-41,-104 -99,-203 -175,-297 -76,-94 -162,-176 -258,-244 -96,-69 -200,-123 -311,-164 -111,-41 -218,-61 -322,-61 -167,0 -318,36 -453,108 -135,72 -251,167 -349,283 -99,117 -174,250 -225,400 -52,150 -78,305 -78,464 0,166 30,324 89,472 59,148 141,279 247,394 105,115 227,205 366,272 139,67 290,100 453,100zm3370 250c-200,0 -385,-42 -555,-125 -170,-83 -317,-194 -441,-333 -124,-139 -221,-298 -289,-478 -69,-179 -103,-365 -103,-558 0,-200 33,-390 100,-572 67,-181 159,-340 278,-477 118,-137 258,-246 419,-328 161,-81 338,-122 530,-122 126,0 246,18 358,56 113,37 217,86 311,147 95,61 181,132 259,213 77,82 144,169 199,261l0 -1793 278 0 0 3665c0,92 39,139 117,139l0 249c-19,4 -35,6 -50,6 -15,0 -30,0 -45,0 -81,0 -147,-26 -197,-78 -50,-52 -75,-109 -75,-172l0 -333c-118,192 -276,346 -474,461 -199,115 -405,172 -620,172zm50 -250c100,0 208,-20 322,-61 115,-41 223,-97 322,-169 100,-73 185,-155 253,-247 69,-93 108,-193 119,-300l0 -950c-40,-104 -99,-203 -174,-297 -76,-94 -162,-176 -259,-244 -96,-69 -200,-123 -311,-164 -111,-41 -218,-61 -322,-61 -166,0 -317,36 -452,108 -135,72 -252,167 -350,283 -98,117 -173,250 -225,400 -52,150 -78,305 -78,464 0,166 30,324 89,472 59,148 142,279 247,394 106,115 228,205 367,272 139,67 289,100 452,100zm3410 250c-204,0 -393,-40 -567,-119 -174,-80 -324,-189 -452,-328 -128,-139 -228,-299 -300,-480 -72,-182 -108,-376 -108,-583 0,-204 36,-396 108,-575 72,-180 171,-337 297,-472 126,-135 276,-242 450,-319 174,-78 361,-117 561,-117 203,0 391,40 563,119 172,80 321,187 447,322 126,136 225,293 297,472 72,180 109,370 109,570 0,18 -1,41 -3,69 -2,28 -3,45 -3,53l-2538 0c12,166 50,321 117,463 67,143 151,266 253,370 101,103 219,185 352,244 134,59 276,89 428,89 100,0 199,-14 297,-42 98,-28 189,-66 272,-114 83,-48 157,-106 222,-175 65,-68 116,-143 153,-224l244 66c-44,104 -106,199 -186,286 -79,87 -172,162 -278,225 -105,63 -221,112 -347,147 -125,35 -255,53 -388,53zm1132 -1610c-11,-171 -49,-326 -113,-467 -65,-140 -148,-262 -250,-364 -102,-101 -220,-181 -353,-238 -133,-58 -276,-86 -427,-86 -152,0 -295,28 -428,86 -133,57 -251,137 -353,238 -101,102 -183,224 -244,367 -61,143 -97,297 -108,464l2276 0zm3238 1554l-278 0 0 -1610c0,-374 -53,-646 -158,-816 -106,-170 -275,-256 -508,-256 -122,0 -244,23 -364,67 -120,45 -231,107 -333,189 -102,81 -192,177 -269,286 -78,109 -136,227 -173,352l0 1788 -277 0 0 -2887 255 0 0 689c59,-112 134,-212 222,-303 89,-91 187,-169 295,-233 107,-65 223,-115 347,-150 124,-35 251,-53 380,-53 315,0 537,110 666,330 130,221 195,536 195,947l0 1660z"/>
  <path class="fil0" d="M42250 17543l0 -3942 1655 0c178,0 341,37 491,111 150,74 279,171 386,292 108,120 192,257 253,410 61,154 92,310 92,470 0,166 -29,326 -87,480 -57,154 -137,291 -241,411 -104,120 -229,216 -375,289 -146,72 -308,108 -486,108l-1066 0 0 1371 -622 0zm622 -1921l1027 0c89,0 170,-18 242,-55 72,-37 134,-89 186,-156 52,-66 92,-144 122,-233 30,-89 45,-187 45,-294 0,-111 -17,-211 -50,-300 -34,-89 -80,-166 -139,-231 -59,-64 -127,-114 -203,-150 -76,-35 -154,-52 -236,-52l-994 0 0 1471zm3913 1977c-229,0 -436,-41 -619,-122 -183,-82 -339,-191 -469,-328 -130,-137 -229,-297 -300,-480 -70,-183 -105,-375 -105,-575 0,-200 35,-391 105,-575 71,-183 171,-343 303,-480 131,-137 289,-246 472,-327 183,-82 388,-123 613,-123 226,0 431,41 614,123 183,81 340,190 472,327 131,137 232,297 303,480 70,184 105,375 105,575 0,200 -35,392 -105,575 -71,183 -172,343 -303,480 -132,137 -289,246 -472,328 -183,81 -388,122 -614,122zm-866 -1499c0,140 22,270 67,388 44,119 105,222 183,309 78,87 169,155 275,205 105,50 219,75 341,75 122,0 236,-25 342,-75 105,-50 197,-119 275,-208 77,-89 139,-193 183,-311 44,-119 67,-248 67,-389 0,-137 -23,-265 -67,-386 -44,-120 -106,-225 -183,-314 -78,-88 -170,-158 -275,-208 -106,-50 -220,-75 -342,-75 -118,0 -230,26 -336,78 -105,52 -197,122 -274,211 -78,89 -140,193 -186,314 -47,120 -70,249 -70,386zm4402 1293c-81,38 -190,79 -325,125 -135,47 -282,70 -441,70 -96,0 -186,-13 -270,-39 -83,-26 -157,-65 -222,-117 -64,-51 -115,-119 -152,-202 -37,-84 -56,-184 -56,-303l0 -1816 -389 0 0 -472 389 0 0 -955 611 0 0 955 633 0 0 472 -633 0 0 1622c0,103 30,178 89,225 59,46 131,69 216,69 85,0 167,-15 245,-44 77,-30 135,-54 172,-73l133 483zm1653 206c-226,0 -431,-40 -616,-119 -185,-80 -343,-188 -475,-325 -131,-137 -233,-296 -305,-478 -72,-181 -108,-374 -108,-577 0,-204 36,-397 108,-581 72,-183 174,-344 305,-483 132,-139 290,-248 475,-327 185,-80 392,-120 622,-120 226,0 430,41 613,123 184,81 340,189 470,324 129,135 228,293 297,472 68,180 102,368 102,564 0,44 -1,86 -5,125 -4,39 -8,71 -11,97l-2327 0c11,130 42,246 92,350 50,104 115,193 194,269 80,76 170,134 272,175 102,41 208,61 319,61 82,0 162,-10 242,-30 80,-21 153,-50 219,-89 67,-39 126,-86 178,-142 52,-55 93,-116 122,-183l522 150c-100,218 -265,397 -497,536 -231,138 -500,208 -808,208zm883 -1727c-11,-122 -41,-235 -91,-339 -50,-103 -114,-191 -192,-263 -78,-73 -168,-129 -272,-170 -104,-41 -213,-61 -328,-61 -114,0 -223,20 -325,61 -101,41 -191,97 -269,170 -78,72 -141,160 -189,263 -48,104 -77,217 -88,339l1754 0zm3636 1671l-611 0 0 -1627c0,-273 -44,-472 -133,-596 -89,-125 -217,-186 -383,-186 -89,0 -179,16 -270,49 -90,34 -175,81 -252,142 -78,61 -148,133 -209,217 -61,83 -108,175 -141,274l0 1727 -611 0 0 -2904 555 0 0 583c111,-196 272,-350 483,-463 211,-113 445,-170 700,-170 174,0 317,32 430,95 113,63 202,149 267,258 65,109 110,235 136,378 26,142 39,293 39,452l0 1771zm2236 -150c-81,38 -190,79 -325,125 -135,47 -282,70 -441,70 -96,0 -186,-13 -269,-39 -84,-26 -158,-65 -223,-117 -64,-51 -115,-119 -152,-202 -37,-84 -56,-184 -56,-303l0 -1816 -389 0 0 -472 389 0 0 -955 611 0 0 955 633 0 0 472 -633 0 0 1622c0,103 30,178 89,225 59,46 131,69 216,69 85,0 167,-15 245,-44 77,-30 135,-54 172,-73l133 483zm326 150l0 -2904 611 0 0 2904 -611 0zm0 -3381l0 -672 611 0 0 672 -611 0zm2042 3437c-140,0 -271,-23 -391,-70 -121,-46 -224,-110 -311,-191 -87,-82 -156,-178 -206,-289 -50,-111 -75,-231 -75,-361 0,-137 30,-261 89,-372 59,-111 144,-207 253,-289 109,-81 239,-144 389,-188 150,-45 315,-67 497,-67 137,0 272,12 405,36 133,24 253,57 361,97l0 -200c0,-214 -61,-382 -183,-502 -123,-120 -298,-181 -528,-181 -155,0 -308,29 -458,87 -150,57 -304,139 -464,247l-188 -389c373,-252 762,-378 1166,-378 399,0 710,102 932,306 223,203 334,496 334,877l0 1050c0,70 13,120 38,149 26,30 71,47 134,50l0 522c-59,11 -114,19 -164,23 -50,3 -95,5 -136,5 -119,-7 -208,-39 -269,-94 -61,-56 -99,-130 -114,-222l-17 -184c-129,171 -290,301 -480,392 -191,91 -395,136 -614,136zm167 -450c148,0 288,-27 419,-80 131,-54 234,-129 308,-225 78,-67 117,-137 117,-211l0 -383c-104,-41 -214,-73 -331,-95 -116,-22 -230,-33 -341,-33 -218,0 -397,47 -536,141 -139,95 -208,220 -208,375 0,145 54,266 161,364 107,98 244,147 411,147zm2136 -3659l611 0 0 3198c0,108 28,192 83,253 56,61 134,92 233,92 41,0 89,-7 145,-20 55,-13 107,-30 155,-53l89 495c-89,40 -194,73 -316,97 -122,24 -232,36 -328,36 -211,0 -376,-58 -494,-172 -119,-115 -178,-278 -178,-489l0 -3437z"/>
 </g>
</svg>
