<?xml version="1.0" encoding="UTF-8"?>
<!DOCTYPE svg PUBLIC "-//W3C//DTD SVG 1.1//EN" "http://www.w3.org/Graphics/SVG/1.1/DTD/svg11.dtd">
<!-- Creator: CorelDRAW X6 -->
<svg xmlns="http://www.w3.org/2000/svg" xml:space="preserve" width="98.6162mm" height="33.4659mm" version="1.1" style="shape-rendering:geometricPrecision; text-rendering:geometricPrecision; image-rendering:optimizeQuality; fill-rule:evenodd; clip-rule:evenodd"
viewBox="0 0 2943 999"
 xmlns:xlink="http://www.w3.org/1999/xlink">
 <defs>
  <style type="text/css">
   <![CDATA[
    .fil1 {fill:white}
    .fil0 {fill:white;fill-rule:nonzero}
   ]]>
  </style>
 </defs>
 <g id="Layer_x0020_1">
  <metadata id="CorelCorpID_0Corel-Layer"/>
  <path class="fil0" d="M857 39l16 13c19,16 35,34 46,54 12,21 19,45 22,68 2,24 0,48 -6,71 -6,23 -17,44 -32,63l-46 57c-2,3 -7,4 -10,1l-3 -2 0 0c-2,-2 -3,-2 -4,-3l-21 -16c-3,-2 -4,-7 -2,-10l1 0 45 -58c11,-14 19,-29 24,-46 5,-16 6,-34 4,-51 -2,-17 -7,-34 -16,-49 -8,-15 -19,-29 -33,-40l-16 -13c-14,-11 -30,-18 -46,-23 -17,-5 -35,-6 -52,-4 -17,2 -34,7 -49,16 -15,8 -28,19 -39,33l-51 64c-2,3 -7,3 -10,1l0 0c-4,-4 -9,-7 -14,-11 -5,-4 -10,-8 -14,-11l0 0 0 0 0 0c-3,-2 -4,-7 -1,-10l0 0 51 -64c15,-19 33,-35 54,-46 21,-12 44,-19 68,-22 23,-3 47,-1 71,6 22,6 43,17 63,32z"/>
  <path class="fil1" d="M351 794c83,20 127,30 154,36 6,4 11,10 8,20 -8,22 -24,23 -42,41 -35,33 -15,92 31,106 40,9 77,-12 86,-46 5,-21 1,-39 -13,-66 -7,-17 -8,-37 10,-38 27,6 73,16 163,36 70,16 83,16 98,-54 11,-48 20,-92 29,-130 2,-12 5,-42 27,-36 23,8 24,24 41,43 34,35 92,15 107,-31 9,-40 -11,-77 -45,-86 -21,-5 -40,-1 -67,12 -19,8 -43,8 -37,-21l31 -135c16,-70 10,-87 -58,-103l-145 -33c-15,-3 -31,3 -28,17 9,12 14,20 15,33 4,24 -5,51 -34,63 -26,10 -58,5 -73,-32 -11,-26 0,-58 35,-75 5,-5 4,-9 2,-18 -2,-9 -24,-12 -34,-14 -47,-10 -91,-22 -143,-33 -54,-12 -68,10 -80,62l-29 127c-5,24 -9,44 -36,34 -32,-12 -22,-51 -72,-62 -85,-15 -115,115 -32,143 47,11 65,-26 91,-24 29,2 24,22 19,45l-1 3 1 1c10,-13 28,-17 42,-8 1,1 3,2 4,3 8,-3 16,-2 24,2 2,2 4,3 6,5l145 -12c-3,-43 37,-80 78,-71 59,13 74,110 -2,132l19 151 -154 -34 55 -81c-4,0 -8,-2 -11,-5 -3,-2 -6,-6 -7,-9 -3,1 -6,2 -9,2l1 6c2,25 -28,40 -46,25 -4,-3 -8,-8 -9,-13 -1,-3 -2,-5 -2,-7l0 0 -3 -36 -51 4c-5,11 -16,15 -26,12 -2,2 -3,4 -5,5 -6,6 -11,7 -19,8 -8,1 -16,-1 -22,-6 -1,-1 -2,-2 -4,-3 -7,3 -14,2 -21,-1 -5,19 -9,39 -13,58 -15,65 -9,74 51,88z"/>
  <path class="fil1" d="M154 656c-5,7 -10,15 -14,22 -24,40 -48,54 -68,54 -10,0 -19,-4 -25,-10 -10,-10 -17,-26 -11,-41 7,-16 21,-35 59,-41 15,-3 13,-13 -1,-14 -31,-1 -48,-11 -59,-22 -12,-12 -13,-25 -8,-39 4,-13 15,-22 29,-25 19,-3 46,6 75,42 8,8 14,16 22,23 19,21 24,19 1,51zm-135 71c11,17 31,29 53,29 27,1 60,-17 88,-65 6,-10 11,-18 18,-27 6,-8 13,-16 21,-26l111 -9c5,11 21,13 28,1 7,26 36,15 39,-1 9,8 22,2 25,-8l71 -6 4 49c2,22 33,16 31,-3l-3 -35c6,25 32,17 31,-2l2 15c0,8 8,18 17,15 8,-3 15,-9 14,-17l3 36c2,18 33,20 31,-3l-3 -44c8,-1 18,-9 17,-17 0,-6 -1,-13 -1,-19 -1,-8 -8,-13 -15,-13l-12 1 -189 16c-3,-6 -10,-8 -16,-9 -4,0 -8,3 -10,6 -4,-8 -12,-12 -20,-12 -10,-1 -18,8 -19,17 -7,-9 -23,-7 -27,6l-111 9c-10,-8 -18,-14 -25,-21 -8,-8 -15,-16 -22,-24 -37,-43 -72,-55 -99,-50 -24,5 -42,23 -49,45 -5,20 -1,41 13,56 8,10 18,16 29,21 -15,9 -27,23 -32,40 -5,19 -3,32 7,49z"/>
  <path class="fil0" d="M1223 619l0 179 -13 0 0 -86 -113 0 0 86 -13 0 0 -179 13 0 0 81 113 0 0 -81 13 0zm43 179l0 -131 13 0 0 131 -13 0zm0 -161l0 -23 13 0 0 23 -13 0zm106 163c-9,0 -18,-1 -25,-5 -8,-4 -15,-9 -21,-15 -5,-7 -10,-14 -13,-22 -3,-8 -4,-17 -4,-26 0,-9 1,-17 4,-26 3,-8 7,-15 13,-21 5,-6 12,-11 19,-15 7,-4 15,-6 24,-6 6,0 11,1 16,3 5,2 10,4 14,7 5,2 9,6 12,9 4,4 7,8 9,12l0 -81 13 0 0 166c0,4 2,7 5,7l0 11c-1,0 -1,0 -2,0 -1,0 -1,0 -2,0 -4,0 -7,-1 -9,-3 -2,-3 -3,-5 -3,-8l0 -15c-6,8 -13,15 -22,21 -9,5 -18,7 -28,7zm2 -11c5,0 9,-1 15,-3 5,-2 10,-4 14,-7 5,-4 9,-7 12,-12 3,-4 5,-8 5,-13l0 -43c-2,-5 -4,-10 -8,-14 -3,-4 -7,-8 -11,-11 -5,-3 -10,-6 -15,-8 -5,-1 -9,-2 -14,-2 -8,0 -15,1 -21,5 -6,3 -11,7 -16,12 -4,6 -8,12 -10,19 -2,6 -3,13 -3,21 0,7 1,14 4,21 2,7 6,13 11,18 5,5 10,9 16,13 7,3 14,4 21,4zm153 11c-9,0 -17,-1 -25,-5 -8,-4 -14,-9 -20,-15 -6,-7 -10,-14 -13,-22 -3,-8 -5,-17 -5,-26 0,-9 2,-17 5,-26 3,-8 7,-15 12,-21 6,-6 12,-11 19,-15 8,-4 16,-6 25,-6 5,0 11,1 16,3 5,2 10,4 14,7 4,2 8,6 12,9 3,4 6,8 9,12l0 -81 12 0 0 166c0,4 2,7 6,7l0 11c-1,0 -2,0 -2,0 -1,0 -2,0 -3,0 -3,0 -6,-1 -8,-3 -3,-3 -4,-5 -4,-8l0 -15c-5,8 -12,15 -21,21 -9,5 -19,7 -29,7zm3 -11c4,0 9,-1 14,-3 5,-2 10,-4 15,-7 4,-4 8,-7 11,-12 4,-4 5,-8 6,-13l0 -43c-2,-5 -5,-10 -8,-14 -4,-4 -7,-8 -12,-11 -4,-3 -9,-6 -14,-8 -5,-1 -10,-2 -15,-2 -7,0 -14,1 -20,5 -6,3 -12,7 -16,12 -5,6 -8,12 -10,19 -3,6 -4,13 -4,21 0,7 1,14 4,21 3,7 7,13 11,18 5,5 11,9 17,13 6,3 13,4 21,4zm155 11c-10,0 -18,-1 -26,-5 -8,-4 -15,-9 -21,-15 -5,-6 -10,-14 -13,-22 -4,-8 -5,-17 -5,-26 0,-10 1,-18 5,-26 3,-9 8,-16 13,-22 6,-6 13,-11 21,-14 8,-4 16,-6 25,-6 9,0 18,2 26,6 8,3 14,8 20,14 6,7 10,14 14,22 3,8 5,17 5,26 0,1 0,2 -1,3 0,1 0,2 0,2l-115 0c0,8 2,15 5,21 3,7 7,12 12,17 4,5 10,9 16,11 6,3 12,4 19,4 5,0 9,0 14,-2 4,-1 8,-3 12,-5 4,-2 7,-5 10,-8 3,-3 5,-6 7,-10l11 3c-2,5 -5,9 -8,13 -4,4 -8,7 -13,10 -5,3 -10,5 -16,7 -5,2 -11,2 -17,2zm51 -73c0,-8 -2,-15 -5,-21 -3,-6 -7,-12 -11,-17 -5,-4 -10,-8 -16,-10 -6,-3 -13,-4 -20,-4 -7,0 -13,1 -19,4 -6,2 -12,6 -16,10 -5,5 -9,11 -11,17 -3,7 -5,14 -5,21l103 0zm147 71l-12 0 0 -73c0,-17 -3,-30 -7,-37 -5,-8 -13,-12 -23,-12 -6,0 -12,1 -17,3 -6,2 -11,5 -15,9 -5,3 -9,8 -12,13 -4,5 -7,10 -8,16l0 81 -13 0 0 -131 12 0 0 31c2,-5 6,-10 10,-14 4,-4 8,-8 13,-10 5,-3 10,-6 16,-7 6,-2 11,-3 17,-3 15,0 25,5 31,15 5,10 8,25 8,43l0 76z"/>
  <path class="fil0" d="M1922 798l0 -179 75 0c8,0 15,1 22,5 7,3 13,7 18,13 5,5 8,12 11,19 3,7 4,14 4,21 0,7 -1,15 -4,22 -2,7 -6,13 -11,18 -4,6 -10,10 -17,14 -6,3 -14,5 -22,5l-48 0 0 62 -28 0zm28 -87l47 0c4,0 7,-1 11,-3 3,-2 6,-4 8,-7 2,-3 4,-7 6,-11 1,-4 2,-8 2,-13 0,-5 -1,-10 -3,-14 -1,-4 -3,-7 -6,-10 -3,-3 -6,-5 -9,-7 -4,-2 -7,-2 -11,-2l-45 0 0 67zm178 89c-11,0 -20,-1 -28,-5 -9,-4 -16,-9 -22,-15 -6,-6 -10,-14 -13,-22 -3,-8 -5,-17 -5,-26 0,-9 2,-18 5,-26 3,-8 7,-16 13,-22 6,-6 14,-11 22,-15 8,-4 18,-5 28,-5 10,0 19,1 28,5 8,4 15,9 21,15 6,6 11,14 14,22 3,8 5,17 5,26 0,9 -2,18 -5,26 -3,8 -8,16 -14,22 -6,6 -13,11 -21,15 -9,4 -18,5 -28,5zm-40 -68c0,7 1,13 3,18 2,5 5,10 9,14 3,4 8,7 12,9 5,3 10,4 16,4 5,0 11,-1 15,-4 5,-2 9,-5 13,-9 3,-4 6,-9 8,-14 2,-6 3,-12 3,-18 0,-6 -1,-12 -3,-18 -2,-5 -5,-10 -8,-14 -4,-4 -8,-7 -13,-9 -4,-3 -10,-4 -15,-4 -6,0 -11,1 -15,4 -5,2 -9,5 -13,9 -3,4 -6,9 -8,15 -3,5 -4,11 -4,17zm201 59c-4,2 -9,4 -15,6 -6,2 -13,3 -20,3 -5,0 -9,-1 -12,-2 -4,-1 -8,-3 -11,-5 -2,-3 -5,-6 -6,-9 -2,-4 -3,-9 -3,-14l0 -83 -18 0 0 -21 18 0 0 -44 28 0 0 44 29 0 0 21 -29 0 0 74c0,5 1,8 4,10 2,2 6,3 10,3 4,0 7,0 11,-2 3,-1 6,-2 8,-3l6 22zm75 9c-10,0 -20,-1 -28,-5 -9,-4 -16,-9 -22,-15 -6,-6 -10,-13 -14,-22 -3,-8 -5,-17 -5,-26 0,-9 2,-18 5,-26 4,-8 8,-16 14,-22 6,-6 13,-11 22,-15 8,-4 18,-5 28,-5 10,0 20,1 28,5 8,4 15,9 21,15 6,6 11,13 14,21 3,8 5,17 5,26 0,2 -1,4 -1,6 0,1 0,3 0,4l-106 0c0,6 2,11 4,16 2,5 5,9 9,12 4,4 8,6 12,8 5,2 10,3 15,3 4,0 7,-1 11,-1 3,-1 7,-3 10,-4 3,-2 6,-4 8,-7 2,-2 4,-5 5,-8l24 7c-4,10 -12,18 -22,24 -11,6 -23,9 -37,9zm40 -78c-1,-6 -2,-11 -4,-16 -2,-4 -5,-8 -9,-12 -3,-3 -8,-5 -12,-7 -5,-2 -10,-3 -15,-3 -5,0 -10,1 -15,3 -5,2 -9,4 -12,7 -4,4 -7,8 -9,12 -2,5 -3,10 -4,16l80 0zm165 76l-27 0 0 -74c0,-13 -2,-22 -6,-27 -5,-6 -10,-9 -18,-9 -4,0 -8,1 -12,3 -4,1 -8,3 -12,6 -3,3 -6,6 -9,10 -3,4 -5,8 -7,12l0 79 -27 0 0 -132 25 0 0 26c5,-9 12,-16 22,-21 9,-5 20,-7 32,-7 8,0 14,1 19,4 5,3 9,7 12,12 3,5 5,10 7,17 1,6 1,13 1,20l0 81zm102 -7c-4,2 -9,4 -15,6 -6,2 -13,3 -20,3 -4,0 -8,-1 -12,-2 -4,-1 -7,-3 -10,-5 -3,-3 -5,-6 -7,-9 -2,-4 -3,-9 -3,-14l0 -83 -17 0 0 -21 17 0 0 -44 28 0 0 44 29 0 0 21 -29 0 0 74c0,5 2,8 4,10 3,2 6,3 10,3 4,0 8,0 11,-2 4,-1 6,-2 8,-3l6 22zm15 7l0 -132 28 0 0 132 -28 0zm0 -154l0 -30 28 0 0 30 -28 0zm93 156c-7,0 -13,-1 -18,-3 -6,-2 -10,-5 -14,-8 -4,-4 -7,-9 -10,-14 -2,-5 -3,-10 -3,-16 0,-6 1,-12 4,-17 3,-5 7,-9 12,-13 5,-4 10,-7 17,-9 7,-2 15,-3 23,-3 6,0 12,1 18,2 6,1 12,3 17,4l0 -9c0,-9 -3,-17 -9,-23 -5,-5 -13,-8 -24,-8 -7,0 -14,2 -20,4 -7,3 -14,7 -22,11l-8 -17c17,-12 35,-17 53,-17 18,0 32,4 42,13 10,10 16,23 16,40l0 48c0,3 0,6 1,7 1,1 3,2 6,2l0 24c-2,0 -5,1 -7,1 -2,0 -4,0 -6,0 -6,0 -10,-2 -13,-4 -2,-3 -4,-6 -5,-10l0 -9c-6,8 -14,14 -22,18 -9,4 -18,6 -28,6zm7 -20c7,0 13,-1 19,-4 6,-2 11,-6 14,-10 4,-3 6,-6 6,-10l0 -17c-5,-2 -10,-3 -15,-4 -6,-1 -11,-2 -16,-2 -10,0 -18,2 -24,7 -7,4 -10,10 -10,17 0,6 3,12 8,16 5,5 11,7 18,7zm98 -166l27 0 0 145c0,5 2,9 4,11 3,3 6,5 11,5 2,0 4,-1 6,-1 3,-1 5,-2 7,-3l4 23c-4,2 -8,3 -14,4 -6,1 -11,2 -15,2 -10,0 -17,-3 -22,-8 -6,-5 -8,-13 -8,-22l0 -156z"/>
 </g>
</svg>
