<?xml version="1.0" encoding="UTF-8"?>
<!DOCTYPE svg PUBLIC "-//W3C//DTD SVG 1.1//EN" "http://www.w3.org/Graphics/SVG/1.1/DTD/svg11.dtd">
<!-- Creator: CorelDRAW X6 -->
<svg xmlns="http://www.w3.org/2000/svg" xml:space="preserve" width="98.6162mm" height="33.4659mm" version="1.1" style="shape-rendering:geometricPrecision; text-rendering:geometricPrecision; image-rendering:optimizeQuality; fill-rule:evenodd; clip-rule:evenodd"
viewBox="0 0 3535 1200"
 xmlns:xlink="http://www.w3.org/1999/xlink">
 <defs>
  <style type="text/css">
   <![CDATA[
    .fil2 {fill:gray}
    .fil3 {fill:gray;fill-rule:nonzero}
    .fil0 {fill:#E0035F;fill-rule:nonzero}
    .fil1 {fill:url(#id0)}
   ]]>
  </style>
  <linearGradient id="id0" gradientUnits="userSpaceOnUse" x1="164.292" y1="746.771" x2="1271.18" y2="746.771">
   <stop offset="0" style="stop-color:#E0035F"/>
   <stop offset="1" style="stop-color:#FF5291"/>
  </linearGradient>
 </defs>
 <g id="Layer_x0020_1">
  <metadata id="CorelCorpID_0Corel-Layer"/>
  <path class="fil0" d="M1029 47l19 16c24,18 42,40 56,65 14,25 22,53 26,81 3,29 1,58 -7,86 -8,26 -21,52 -39,75l-54 69c-3,3 -9,4 -13,1l-4 -3 0 0c-2,-2 -3,-3 -4,-3l-26 -20c-3,-3 -4,-8 -1,-12l0 0 55 -69c13,-17 22,-36 28,-55 6,-20 7,-41 5,-62 -2,-21 -9,-41 -19,-59 -10,-18 -23,-34 -40,-47l-19 -16c-17,-13 -36,-22 -55,-28 -21,-6 -42,-7 -62,-5 -21,2 -41,9 -60,19 -17,10 -33,23 -47,40l-60 76c-3,4 -9,5 -12,2l0 0c-6,-4 -12,-9 -18,-13 -6,-5 -12,-9 -16,-13l-1 0 0 0 0 0c-3,-3 -4,-8 -1,-12l0 0 61 -77c19,-24 41,-42 65,-55 26,-15 53,-23 82,-27 28,-3 57,-1 85,7 27,8 53,21 76,39z"/>
  <path class="fil1" d="M422 954c100,23 152,36 184,43 8,4 13,12 10,23 -10,27 -29,29 -51,49 -42,41 -18,111 38,128 47,11 92,-14 103,-54 6,-26 1,-48 -15,-81 -9,-19 -10,-43 12,-45 32,7 87,19 195,44 85,19 99,19 118,-65 14,-58 24,-111 34,-156 4,-15 7,-51 34,-44 27,10 28,30 49,52 40,42 111,18 127,-37 11,-48 -13,-93 -54,-103 -25,-7 -47,-2 -80,14 -23,10 -51,10 -43,-25l36 -163c19,-83 13,-105 -69,-123l-174 -39c-19,-5 -37,3 -34,20 10,14 16,24 18,39 5,28 -6,61 -41,75 -31,12 -69,6 -88,-38 -13,-31 0,-70 43,-89 6,-6 4,-11 1,-22 -2,-11 -29,-15 -40,-17 -56,-13 -110,-27 -171,-40 -65,-14 -83,13 -97,75l-34 153c-7,28 -11,53 -44,40 -39,-15 -27,-61 -86,-74 -102,-19 -139,138 -39,171 56,14 78,-31 109,-29 35,3 29,27 23,54l-1 5 1 0c12,-16 34,-20 50,-10 2,1 4,3 6,4 10,-3 19,-2 28,3 2,2 5,3 7,6l175 -15c-4,-51 44,-96 94,-85 71,16 88,132 -3,159l23 181 -185 -41 66 -97c-5,-1 -10,-3 -13,-6 -4,-3 -7,-7 -9,-11 -4,1 -6,2 -10,2l0 7c3,30 -33,49 -55,31 -5,-4 -9,-10 -11,-16 -1,-3 -1,-6 -2,-9l0 0 -3 -43 -62 6c-6,12 -18,17 -31,14 -2,2 -4,4 -5,6 -8,6 -14,8 -23,10 -10,0 -19,-2 -27,-8 -1,-1 -3,-2 -4,-4 -9,3 -18,3 -26,0 -6,22 -11,46 -16,69 -18,78 -11,89 62,106z"/>
  <path class="fil2" d="M184 788c-6,9 -11,17 -16,27 -29,47 -58,64 -82,64 -12,0 -22,-4 -30,-12 -12,-12 -20,-32 -12,-49 7,-19 24,-43 70,-50 18,-3 15,-16 -1,-16 -37,-1 -57,-14 -71,-27 -14,-14 -16,-30 -10,-46 5,-16 18,-28 35,-30 23,-5 55,7 91,50 8,10 16,19 26,28 22,25 28,22 0,61zm-161 84c13,22 37,36 63,36 33,1 72,-20 107,-78 6,-12 13,-22 21,-33 7,-9 15,-19 25,-30l133 -12c6,13 26,16 34,2 9,31 43,18 47,-1 11,8 26,2 30,-10l85 -7 5 58c2,27 39,19 37,-3l-3 -42c6,30 37,20 37,-3l2 19c1,9 10,21 20,17 10,-3 18,-10 17,-20l4 43c2,22 40,25 38,-3l-5 -53c10,-1 22,-10 21,-21 0,-7 -1,-15 -2,-23 0,-9 -8,-16 -17,-15l-15 1 -227 19c-3,-7 -11,-10 -19,-10 -5,-1 -9,3 -12,6 -5,-9 -15,-13 -24,-14 -12,-1 -21,10 -22,21 -9,-11 -29,-9 -33,7l-134 11c-12,-9 -21,-18 -29,-26 -10,-9 -18,-18 -27,-28 -44,-52 -86,-66 -118,-60 -29,5 -52,27 -59,54 -7,24 -2,48 15,67 9,11 22,19 35,25 -18,11 -33,28 -39,48 -6,23 -4,38 9,58z"/>
  <path class="fil3" d="M1468 743l0 215 -15 0 0 -103 -136 0 0 103 -15 0 0 -215 15 0 0 98 136 0 0 -98 15 0zm52 215l0 -158 15 0 0 158 -15 0zm0 -193l0 -28 15 0 0 28 -15 0zm127 196c-11,0 -21,-2 -30,-7 -9,-4 -17,-10 -24,-18 -7,-7 -12,-16 -16,-26 -4,-10 -5,-20 -5,-30 0,-11 1,-22 5,-32 4,-10 9,-18 15,-26 7,-7 14,-13 23,-18 9,-4 19,-6 29,-6 7,0 13,1 20,3 6,2 11,4 17,8 5,3 9,7 14,11 4,5 8,10 11,15l0 -98 15 0 0 200c0,5 2,8 6,8l0 13c-1,0 -2,0 -3,0 0,0 -1,0 -2,0 -4,0 -8,-1 -11,-4 -3,-3 -4,-6 -4,-9l0 -18c-6,10 -15,19 -26,25 -11,6 -22,9 -34,9zm3 -13c6,0 11,-2 18,-4 6,-2 12,-5 17,-9 6,-4 10,-8 14,-14 4,-5 6,-10 7,-16l0 -52c-3,-5 -6,-11 -10,-16 -4,-5 -9,-10 -14,-13 -5,-4 -11,-7 -17,-9 -6,-2 -12,-4 -18,-4 -9,0 -17,2 -24,6 -8,4 -14,9 -19,16 -6,6 -10,13 -13,22 -3,8 -4,16 -4,25 0,9 2,18 5,26 3,8 8,15 13,21 6,7 13,11 20,15 8,4 16,6 25,6zm184 13c-11,0 -21,-2 -30,-7 -9,-4 -17,-10 -24,-18 -7,-7 -12,-16 -16,-26 -4,-10 -6,-20 -6,-30 0,-11 2,-22 6,-32 3,-10 9,-18 15,-26 6,-7 14,-13 23,-18 9,-4 18,-6 29,-6 7,0 13,1 19,3 7,2 12,4 17,8 6,3 10,7 15,11 4,5 7,10 10,15l0 -98 16 0 0 200c0,5 2,8 6,8l0 13c-1,0 -2,0 -3,0 -1,0 -1,0 -2,0 -5,0 -8,-1 -11,-4 -3,-3 -4,-6 -4,-9l0 -18c-7,10 -15,19 -26,25 -11,6 -22,9 -34,9zm3 -13c5,0 11,-2 18,-4 6,-2 12,-5 17,-9 6,-4 10,-8 14,-14 4,-5 6,-10 6,-16l0 -52c-2,-5 -5,-11 -9,-16 -4,-5 -9,-10 -14,-13 -5,-4 -11,-7 -17,-9 -6,-2 -12,-4 -18,-4 -9,0 -17,2 -25,6 -7,4 -13,9 -19,16 -5,6 -9,13 -12,22 -3,8 -4,16 -4,25 0,9 1,18 5,26 3,8 7,15 13,21 6,7 13,11 20,15 8,4 16,6 25,6zm186 13c-11,0 -21,-2 -31,-6 -9,-5 -18,-11 -25,-18 -6,-8 -12,-17 -16,-26 -4,-10 -6,-21 -6,-32 0,-11 2,-22 6,-32 4,-9 9,-18 16,-25 7,-8 15,-14 25,-18 9,-4 20,-6 31,-6 11,0 21,2 30,6 10,5 18,10 25,18 7,7 12,16 16,26 4,9 6,20 6,31 0,1 0,2 0,4 0,1 0,2 0,2l-139 0c1,9 3,18 6,26 4,8 9,14 14,20 6,6 12,10 19,13 8,3 15,5 24,5 5,0 11,-1 16,-2 5,-2 10,-4 15,-6 4,-3 8,-6 12,-10 4,-4 6,-8 8,-12l14 3c-3,6 -6,11 -11,16 -4,5 -9,9 -15,12 -5,4 -12,6 -19,8 -6,2 -14,3 -21,3zm62 -88c-1,-9 -3,-18 -6,-25 -4,-8 -8,-15 -14,-20 -5,-6 -12,-10 -19,-13 -7,-3 -15,-5 -23,-5 -9,0 -17,2 -24,5 -7,3 -14,7 -19,13 -6,5 -10,12 -13,20 -4,8 -6,16 -6,25l124 0zm177 85l-15 0 0 -88c0,-20 -3,-35 -9,-44 -6,-10 -15,-14 -28,-14 -6,0 -13,1 -20,3 -6,3 -12,6 -18,11 -5,4 -10,9 -15,15 -4,6 -7,13 -9,20l0 97 -15 0 0 -158 14 0 0 38c3,-6 7,-11 12,-16 5,-5 10,-10 16,-13 6,-4 12,-6 19,-8 7,-2 14,-3 21,-3 17,0 29,6 36,18 7,12 11,29 11,52l0 90z"/>
  <path class="fil0" d="M2308 958l0 -215 90 0c10,0 19,2 27,6 8,4 15,9 21,16 6,6 10,14 14,22 3,9 5,17 5,26 0,9 -2,18 -5,26 -3,9 -8,16 -13,23 -6,6 -13,11 -21,15 -8,4 -16,6 -26,6l-58 0 0 75 -34 0zm34 -105l56 0c5,0 9,-1 13,-3 4,-2 7,-5 10,-8 3,-4 5,-8 7,-13 1,-5 2,-10 2,-16 0,-6 -1,-12 -3,-16 -1,-5 -4,-10 -7,-13 -3,-4 -7,-6 -11,-8 -4,-2 -9,-3 -13,-3l-54 0 0 80zm213 108c-12,0 -23,-2 -33,-6 -11,-5 -19,-11 -26,-18 -7,-8 -13,-17 -16,-27 -4,-10 -6,-20 -6,-31 0,-11 2,-21 6,-31 3,-10 9,-19 16,-27 7,-7 16,-13 26,-17 10,-5 21,-7 33,-7 13,0 24,2 34,7 10,4 18,10 26,17 7,8 12,17 16,27 4,10 6,20 6,31 0,11 -2,21 -6,31 -4,10 -9,19 -16,27 -8,7 -16,13 -26,18 -10,4 -21,6 -34,6zm-47 -82c0,8 1,15 4,22 2,6 5,12 10,16 4,5 9,9 15,12 5,2 12,4 18,4 7,0 13,-2 19,-4 6,-3 11,-7 15,-12 4,-5 8,-10 10,-17 2,-6 4,-13 4,-21 0,-7 -2,-14 -4,-21 -2,-7 -6,-12 -10,-17 -4,-5 -9,-9 -15,-12 -6,-2 -12,-4 -19,-4 -6,0 -12,2 -18,5 -6,2 -11,6 -15,11 -4,5 -8,11 -10,17 -3,7 -4,14 -4,21zm240 71c-4,2 -10,4 -17,7 -8,2 -16,4 -24,4 -6,0 -11,-1 -15,-3 -5,-1 -9,-3 -12,-6 -4,-3 -7,-6 -9,-11 -2,-4 -3,-10 -3,-16l0 -100 -21 0 0 -25 21 0 0 -53 34 0 0 53 34 0 0 25 -34 0 0 89c0,6 1,10 5,12 3,3 7,4 11,4 5,0 10,-1 14,-2 4,-2 7,-3 9,-4l7 26zm91 11c-13,0 -24,-2 -34,-6 -10,-5 -19,-11 -26,-18 -7,-8 -13,-16 -17,-26 -3,-10 -5,-21 -5,-32 0,-11 2,-21 5,-31 4,-10 10,-19 17,-27 7,-7 16,-13 26,-18 10,-4 21,-6 34,-6 12,0 24,2 34,7 10,4 18,10 25,17 7,8 13,16 16,26 4,10 6,20 6,31 0,2 0,5 0,7 0,2 -1,4 -1,5l-127 0c1,7 2,13 5,19 3,6 6,11 11,15 4,4 9,7 15,9 5,3 11,4 17,4 4,0 9,-1 13,-2 4,-1 8,-3 12,-5 4,-2 7,-5 10,-8 3,-3 5,-6 6,-10l29 9c-5,12 -15,21 -27,29 -13,7 -27,11 -44,11zm48 -94c-1,-7 -2,-13 -5,-19 -3,-5 -6,-10 -11,-14 -4,-4 -9,-7 -14,-9 -6,-2 -12,-4 -18,-4 -7,0 -12,2 -18,4 -6,2 -10,5 -15,9 -4,4 -7,9 -10,14 -3,6 -4,12 -5,19l96 0zm199 91l-34 0 0 -89c0,-15 -2,-26 -7,-32 -5,-7 -12,-10 -21,-10 -5,0 -10,0 -15,2 -5,2 -9,5 -14,8 -4,3 -8,7 -11,12 -3,4 -6,9 -8,15l0 94 -33 0 0 -158 30 0 0 31c6,-10 15,-19 27,-25 11,-6 24,-9 38,-9 9,0 17,2 23,5 7,3 11,8 15,14 4,6 6,13 7,21 2,8 3,16 3,24l0 97zm122 -8c-5,2 -11,4 -18,7 -7,2 -15,4 -24,4 -5,0 -10,-1 -15,-3 -4,-1 -8,-3 -12,-6 -4,-3 -6,-6 -8,-11 -2,-4 -3,-10 -3,-16l0 -100 -22 0 0 -25 22 0 0 -53 33 0 0 53 35 0 0 25 -35 0 0 89c0,6 2,10 5,12 3,3 7,4 12,4 4,0 9,-1 13,-2 4,-2 7,-3 9,-4l8 26zm17 8l0 -158 34 0 0 158 -34 0zm0 -185l0 -36 34 0 0 36 -34 0zm112 188c-8,0 -15,-1 -21,-4 -7,-2 -13,-6 -17,-10 -5,-4 -9,-10 -12,-16 -2,-6 -4,-12 -4,-20 0,-7 2,-14 5,-20 3,-6 8,-11 14,-16 6,-4 13,-7 21,-10 8,-2 17,-4 27,-4 8,0 15,1 22,2 8,2 14,3 20,6l0 -11c0,-12 -3,-21 -10,-28 -6,-6 -16,-10 -29,-10 -8,0 -16,2 -25,5 -8,3 -16,8 -25,14l-10 -22c20,-13 41,-20 63,-20 22,0 39,5 51,17 13,11 19,27 19,47l0 58c0,4 0,6 2,8 1,2 4,2 7,3l0 28c-3,1 -6,1 -9,1 -3,1 -5,1 -7,1 -7,-1 -12,-2 -15,-5 -3,-3 -6,-8 -6,-13l-1 -10c-7,10 -16,17 -26,22 -11,5 -22,7 -34,7zm9 -24c8,0 16,-2 23,-5 7,-3 13,-7 17,-12 4,-4 6,-8 6,-12l0 -20c-5,-3 -11,-4 -18,-6 -6,-1 -12,-1 -18,-1 -12,0 -22,2 -30,7 -7,5 -11,12 -11,21 0,8 3,14 9,20 6,5 13,8 22,8zm117 -200l33 0 0 174c0,6 2,11 5,14 3,4 7,5 12,5 3,0 5,0 8,-1 3,0 6,-1 9,-3l5 27c-5,3 -11,4 -18,6 -6,1 -12,2 -18,2 -11,0 -20,-4 -27,-10 -6,-6 -9,-15 -9,-26l0 -188z"/>
 </g>
</svg>
